<svg xmlns="http://www.w3.org/2000/svg" xmlns:xlink="http://www.w3.org/1999/xlink" viewBox="0 0 641.45 641.45"><defs><style>.cls-1{fill:url(#linear-gradient);}.cls-2{fill:#fff;}</style><linearGradient id="linear-gradient" x1="-0.71" y1="639.78" x2="681.82" y2="-37.7" gradientUnits="userSpaceOnUse"><stop offset="0.15" stop-color="#742282"/><stop offset="0.26" stop-color="#5f2885"/><stop offset="0.44" stop-color="#442f89"/><stop offset="0.62" stop-color="#31358c"/><stop offset="0.8" stop-color="#26388d"/><stop offset="1" stop-color="#22398e"/></linearGradient></defs><g id="Layer_2" data-name="Layer 2"><g id="Layer_1-2" data-name="Layer 1"><rect class="cls-1" width="641.45" height="641.45" rx="72.48"/><path class="cls-2" d="M346.49,355.94c-14.68,34.75-28.8,68.1-42.89,101.47-7.24,17.17-12,20.37-30.52,20.35q-38.88,0-77.77-.14c-2.18,0-4.35-.25-6.93-.41v-53.6c15.76,0,31.19-.48,46.56.2,7.64.34,11.35-2,14.31-9.16,18.39-44.36,37.45-88.44,55.82-132.81,2.75-6.64,6.18-8.59,13-8.42,19.15.47,38.33.4,57.48.12,8-.12,12.84,2.53,16.24,10.27,13.21,30.1,27.06,59.91,40.72,89.8,1.24,2.73,2.81,5.32,5.33,10.05,2.61-4.29,4.7-7,6-10C456,345.3,468.15,316.9,480,288.37c3.8-9.17,10.59-14.41,19.87-14.56,30.66-.49,61.33-.18,92.63-.18v54.1c-16,0-31.68.44-47.35-.19-7.21-.29-10.31,2.57-12.89,8.75-17.41,41.73-35.1,83.33-52.75,125-5.23,12.35-11.91,16.57-25.43,16.51s-27.05-.22-40.57.05c-7.89.15-12.83-2.53-16.24-10.23-15.67-35.46-31.91-70.67-47.95-106C348.6,360.1,347.82,358.62,346.49,355.94Z"/><path class="cls-2" d="M55,400.6V346.18c16.32,0,32.28-.32,48.22.17,6.29.19,9.19-1.7,11.62-7.64,15.87-38.73,32.23-77.25,48.41-115.85.51-1.23.84-2.53,1.6-4.81H131.37V164H261.13c-15.17,36.54-30.08,72.43-45.39,109.3h74.5c-5,12.05-10.36,22.76-13.79,34.07-3.78,12.5-10.52,16.83-23.69,15.64-15.65-1.42-31.56.27-47.29-.58-8.63-.47-12.34,2.93-15.26,10.39-6.85,17.51-14.69,34.65-21.66,52.12-4.3,10.77-11.68,15.8-23.24,15.73C115.48,400.48,85.66,400.6,55,400.6Z"/><path class="cls-2" d="M315.86,256.78c12-28.4,22.84-55.51,35.24-81.87,2.43-5.18,10.87-10.44,16.71-10.64,31.18-1,62.42-.49,94.18-.49V218c-16.27,0-32.27.42-48.22-.19-6.9-.27-10,2.11-12.2,8.35-3.69,10.3-8.31,20.27-12.66,30.65Z"/></g></g></svg>