<svg xmlns="http://www.w3.org/2000/svg" viewBox="0 0 537.48 314.18"><defs><style>.cls-1{fill:#422683;}</style></defs><g id="Layer_2" data-name="Layer 2"><g id="Layer_1-2" data-name="Layer 1"><path class="cls-1" d="M291.51,192.3c-14.69,34.75-28.81,68.11-42.89,101.48-7.24,17.16-12,20.36-30.52,20.34q-38.88,0-77.78-.13c-2.17,0-4.35-.25-6.92-.41V260c15.76,0,31.18-.47,46.56.21,7.64.33,11.35-2,14.3-9.16,18.4-44.36,37.46-88.44,55.83-132.81,2.75-6.64,6.18-8.59,13-8.42,19.15.46,38.32.4,57.48.12,8-.12,12.84,2.53,16.24,10.27,13.21,30.09,27.06,59.9,40.71,89.8,1.25,2.73,2.81,5.31,5.34,10.05,2.61-4.3,4.7-7,6-10,12.15-28.4,24.31-56.8,36.13-85.34,3.8-9.16,10.58-14.4,19.87-14.55,30.66-.49,61.32-.19,92.62-.19V164.1c-16,0-31.67.44-47.34-.19-7.21-.3-10.31,2.56-12.89,8.75-17.41,41.72-35.1,83.33-52.75,125-5.23,12.36-11.91,16.58-25.43,16.52s-27.05-.22-40.57,0c-7.9.16-12.84-2.52-16.24-10.23-15.68-35.45-31.91-70.66-47.95-105.95C293.62,196.46,292.84,195,291.51,192.3Z"/><path class="cls-1" d="M0,237V182.55c16.31,0,32.28-.33,48.22.16,6.28.2,9.18-1.7,11.62-7.64,15.87-38.72,32.22-77.25,48.4-115.84.52-1.23.85-2.53,1.6-4.81H76.39V.35H206.15C191,36.89,176.07,72.77,160.76,109.65h74.5c-5,12-10.36,22.76-13.79,34.07-3.78,12.49-10.52,16.83-23.69,15.64-15.65-1.43-31.56.27-47.3-.58-8.63-.47-12.33,2.92-15.25,10.38-6.86,17.52-14.69,34.65-21.66,52.12-4.31,10.78-11.69,15.81-23.24,15.74C60.5,236.85,30.67,237,0,237Z"/><path class="cls-1" d="M260.88,93.15c12-28.4,22.84-55.51,35.24-81.88C298.55,6.09,307,.83,312.83.64,344-.41,375.24.15,407,.15V54.34c-16.27,0-32.27.42-48.22-.2-6.91-.26-10,2.12-12.2,8.35-3.69,10.31-8.32,20.28-12.66,30.66Z"/></g></g></svg>